<svg width="56" height="56" viewBox="0 0 56 56" fill="none" xmlns="http://www.w3.org/2000/svg">
<path fill-rule="evenodd" clip-rule="evenodd" d="M8.36375 9.32581C8.36562 9.39399 8.37029 9.46216 8.38711 9.53034L10.2553 17.0016C10.3618 17.4266 10.743 17.7096 11.1614 17.7096C11.2362 17.7096 11.3128 17.7002 11.3884 17.6806C11.8891 17.5564 12.1936 17.0493 12.0685 16.5487L11.0176 12.348L14.2384 15.5681C14.4206 15.7502 14.6597 15.8417 14.8988 15.8417C15.137 15.8417 15.3762 15.7502 15.5593 15.5681C15.9236 15.2029 15.9236 14.6118 15.5593 14.2475L12.3384 11.0274L16.5401 12.0771C17.0398 12.2051 17.548 11.8997 17.6732 11.3982C17.7983 10.8985 17.4938 10.3914 16.9931 10.2663L9.52019 8.39844C9.45107 8.38069 9.38101 8.37415 9.31095 8.37322C9.30348 8.37322 9.29694 8.37135 9.28946 8.37135C9.18297 8.37135 9.08022 8.39563 8.98027 8.43112C8.95505 8.44046 8.9317 8.45074 8.90741 8.46194C8.80746 8.5077 8.71311 8.56467 8.63371 8.64405C8.55338 8.72344 8.4964 8.8187 8.45063 8.91769C8.44035 8.94197 8.43008 8.96439 8.42073 8.9896C8.38524 9.0886 8.36189 9.19133 8.36095 9.29873C8.36095 9.30713 8.36375 9.31647 8.36375 9.32581ZM29.8447 31.7183C30.8741 31.7183 31.7129 30.8796 31.7129 29.8504C31.7129 28.8203 30.8741 27.9826 29.8447 27.9826C28.8144 27.9826 27.9765 28.8203 27.9765 29.8504C27.9765 30.8796 28.8144 31.7183 29.8447 31.7183ZM29.8447 33.5861C27.7841 33.5861 26.1082 31.9106 26.1082 29.8504C26.1082 27.7902 27.7841 26.1148 29.8447 26.1148C31.9054 26.1148 33.5812 27.7902 33.5812 29.8504C33.5812 31.9106 31.9054 33.5861 29.8447 33.5861ZM56 28.9165C56 29.432 55.5815 29.8504 55.0659 29.8504H46.6588V32.6522C46.6588 34.1474 46.2525 35.3129 45.451 36.1142L41.4408 40.1235L50.1216 48.8023C50.4859 49.1666 50.4859 49.7577 50.1216 50.1229C49.9385 50.305 49.6994 50.3965 49.4612 50.3965C49.222 50.3965 48.9829 50.305 48.8008 50.1229L40.12 41.444L36.1098 45.4533C35.0197 46.5432 33.3243 46.6609 32.6471 46.6609H29.8447V55.0661C29.8447 55.5816 29.4262 56 28.9106 56C28.394 56 27.9765 55.5816 27.9765 55.0661V46.6609H26.1082C25.0788 46.6609 23.6431 46.4507 22.6455 45.4533L12.3702 35.1803C12.1946 35.0047 12.0965 34.7675 12.0965 34.52V27.9826C12.0965 27.7342 12.1946 27.497 12.3702 27.3223L19.1827 20.5113L17.6928 19.0217C12.6243 23.9257 6.54503 28.0069 2.91318 28.0069C2.01643 28.0069 1.2682 27.7585 0.722674 27.2121C-1.52201 24.9698 1.79878 18.2606 6.06209 13.0876C6.3909 12.6898 6.97939 12.6328 7.37733 12.9615C7.77526 13.2884 7.83224 13.8777 7.50437 14.2756C2.41343 20.4525 1.36908 25.2182 2.04352 25.8916C3.08506 26.9376 9.32683 24.7597 17.0408 17.0493C24.7491 9.34262 26.9219 3.10688 25.8785 2.06277C25.1171 1.30256 20.341 2.53066 14.3038 7.49627C13.9068 7.82501 13.3174 7.76618 12.9895 7.36833C12.6616 6.97048 12.7186 6.38212 13.1175 6.05338C18.4036 1.70414 24.9369 -1.51692 27.1993 0.742213C29.9577 3.50006 25.1246 11.3842 19.0118 17.6993L20.5035 19.1907L27.3161 12.3797C27.4907 12.2041 27.728 12.1061 27.9765 12.1061H29.3394C29.855 12.1061 30.2735 12.5235 30.2735 13.04C30.2735 13.5555 29.855 13.9739 29.3394 13.9739H28.3632L13.9647 28.3692V34.1324L23.9663 44.1328C24.5408 44.7071 25.5543 44.793 26.1082 44.793H27.9765V40.1235C27.9765 39.607 28.394 39.1896 28.9106 39.1896C29.4262 39.1896 29.8447 39.607 29.8447 40.1235V44.793H32.6471C33.3626 44.793 34.3014 44.6193 34.789 44.1328L38.7992 40.1235L33.8549 35.1803C33.4896 34.8151 33.4896 34.2239 33.8549 33.8597C34.2192 33.4946 34.8105 33.4946 35.1757 33.8597L40.12 38.802L44.1302 34.7936C44.5739 34.3491 44.7906 33.6487 44.7906 32.6522V29.8504H40.12C39.6034 29.8504 39.1859 29.432 39.1859 28.9165C39.1859 28.4001 39.6034 27.9826 40.12 27.9826H44.7906V26.1148C44.7906 25.2285 44.5244 24.3674 44.1302 23.9733L34.5153 14.3605L17.4275 31.4446C17.0623 31.8088 16.471 31.8088 16.1067 31.4446C15.7414 31.0795 15.7414 30.4883 16.1067 30.1241L33.8549 12.3797C34.2192 12.0145 34.8105 12.0145 35.1757 12.3797L45.451 22.6528C46.572 23.7725 46.6588 25.5852 46.6588 26.1148V27.9826H55.0659C55.5815 27.9826 56 28.4001 56 28.9165Z" fill="white"/>
</svg>
