<svg width="56" height="56" viewBox="0 0 56 56" fill="none" xmlns="http://www.w3.org/2000/svg">
<path d="M5.79678 14.2183C5.07491 12.3371 4.50616 10.3683 4.09053 8.37769C3.93741 7.61206 3.78428 6.86831 3.65303 6.10269C3.56553 5.62144 3.49991 5.11831 3.41241 4.61519C3.36866 4.37456 3.34678 4.11206 3.30303 3.87144V3.71831C3.30303 3.67456 3.28116 3.60894 3.28116 3.56519C3.39053 3.56519 3.49991 3.58706 3.60928 3.60894L3.80616 3.63081C4.30928 3.69644 4.79053 3.76206 5.29366 3.84956C6.27803 4.00269 7.24053 4.17769 8.15928 4.37456C10.0843 4.79019 11.9874 5.33706 13.803 6.01519C14.3499 6.21206 14.9405 5.94956 15.1593 5.40269C15.3562 4.85581 15.0937 4.26519 14.5468 4.04644C12.6437 3.32456 10.653 2.75581 8.61866 2.31831C7.67803 2.12144 6.67178 1.92456 5.64366 1.77144C5.14053 1.68394 4.61553 1.61831 4.11241 1.55269L3.89366 1.53081C3.41241 1.46519 2.77803 1.37769 2.09991 1.68394C1.55303 1.94644 1.20303 2.51519 1.15928 3.21519C1.13741 3.52144 1.18116 3.80581 1.20303 4.02456L1.22491 4.15581C1.26866 4.41831 1.29053 4.68081 1.33428 4.94331C1.39991 5.44644 1.48741 5.97144 1.57491 6.47456C1.70616 7.26206 1.85928 8.04956 2.03428 8.83706C2.47178 10.9371 3.08428 12.9933 3.82803 15.0058C3.98116 15.4214 4.37491 15.6839 4.81241 15.6839C4.94366 15.6839 5.05303 15.6621 5.18428 15.6183C5.73116 15.3777 5.99366 14.7652 5.79678 14.2183Z" fill="black"/>
<path d="M54.5342 49.6993C53.9655 49.1305 53.8342 48.1024 53.6811 47.0743C53.3748 44.9524 52.478 41.0368 49.7655 38.6087C48.5842 37.5587 47.2061 36.9243 45.6748 36.7274C43.3561 36.4212 40.928 37.2524 39.0467 39.0024C37.1655 40.7524 36.1592 43.093 36.2905 45.4555C36.5311 49.9618 40.7967 52.4555 44.3842 53.243C45.3905 53.4618 46.4186 53.6805 47.0092 54.2493C47.2061 54.4462 47.4905 54.5555 47.7748 54.5555C47.928 54.5555 48.0592 54.5337 48.2123 54.4681C48.9123 54.1399 48.8686 53.3524 48.8467 53.0243C48.7592 51.7555 47.9936 50.9462 47.403 50.3118C47.1842 50.0712 46.9655 49.8306 46.7905 49.6118C46.5936 49.3274 46.5061 49.0212 46.5717 48.7805C46.6373 48.5618 46.8123 48.3868 47.1186 48.2337C47.7748 47.9274 48.6936 47.993 49.2623 48.4087C49.6123 48.6493 49.8967 49.043 50.2248 49.4368C50.7061 50.0493 51.253 50.7274 52.0623 51.1431C52.4561 51.3399 52.8498 51.4712 53.353 51.5368C53.6811 51.5587 54.4248 51.6024 54.753 50.9024C54.928 50.5087 54.8405 50.0274 54.5342 49.6993ZM50.4873 46.7024C49.3061 45.8493 47.5561 45.6962 46.2217 46.3305C45.3686 46.7462 44.7561 47.4243 44.5373 48.2337C44.3186 49.0649 44.5155 50.0055 45.0623 50.793C45.1936 50.9899 45.3467 51.1649 45.4998 51.3399C45.2592 51.2743 45.0405 51.2305 44.8217 51.1868C41.9561 50.5743 38.5655 48.6712 38.3686 45.3462C38.2811 43.618 39.0467 41.868 40.4686 40.5337C41.6936 39.3962 43.2248 38.7618 44.7123 38.7618C44.9311 38.7618 45.1717 38.7837 45.3905 38.8055C46.5061 38.9587 47.5123 39.418 48.3655 40.1837C49.9842 41.6274 51.1655 44.2524 51.603 47.4243C51.6248 47.5774 51.6467 47.7305 51.6686 47.9055C51.3405 47.468 50.9686 47.0305 50.4873 46.7024Z" fill="black"/>
<path d="M40.4905 32.2219L39.4405 29.3782C39.003 28.2188 38.5218 27.0594 37.9968 25.9438L46.7905 17.15C47.4686 16.4719 47.6655 15.4438 47.2499 14.5688C46.8343 13.6938 45.9593 13.1688 44.9968 13.2344L30.0999 14.3282C26.753 10.8282 22.903 7.96255 18.6155 5.84067C18.5061 5.77505 18.3968 5.73129 18.2436 5.66567C17.8499 5.46879 17.3686 5.55629 17.0624 5.86254L5.55615 17.3469C5.2499 17.6532 5.1624 18.1344 5.35927 18.55L5.5124 18.8563C7.65615 23.1657 10.4999 27.0375 14.0218 30.3844L12.928 45.3032C12.8624 46.2657 13.3874 47.1625 14.2624 47.5563C14.5686 47.7094 14.8968 47.775 15.2249 47.775C15.8155 47.775 16.4061 47.5344 16.8436 47.0969L25.6374 38.2813C26.753 38.8063 27.9124 39.2875 29.0499 39.7032L31.8936 40.7532C32.2655 40.8844 32.703 40.7969 32.9874 40.5125L40.228 33.3157C40.5343 33.0313 40.6437 32.5938 40.4905 32.2219ZM32.0249 38.5438L29.8155 37.7125C28.503 37.2313 27.1905 36.6625 25.9218 36.05C25.528 35.8532 25.0468 35.9407 24.7186 36.2469L15.3999 45.5875C15.378 45.6094 15.2905 45.6969 15.1593 45.6313C15.028 45.5657 15.028 45.4782 15.0499 45.4344L16.1655 30.0125C16.1874 29.6844 16.0561 29.3782 15.8374 29.1594C12.4249 26.0313 9.64677 22.3563 7.56865 18.2875L18.003 7.85317C22.0936 9.9313 25.7686 12.7094 28.9186 16.1C29.1374 16.3407 29.4436 16.45 29.7718 16.4282L45.1718 15.2907C45.2155 15.2907 45.303 15.2907 45.3686 15.4C45.4343 15.5313 45.3468 15.6188 45.3249 15.6407L36.0061 24.9594C35.6999 25.2657 35.6124 25.7469 35.8093 26.1625C36.4218 27.4313 36.9905 28.7438 37.4936 30.1L38.303 32.3094L32.0249 38.5438Z" fill="black"/>
<path d="M18.3092 18.5711C17.3467 19.5336 16.7998 20.8242 16.7998 22.2023C16.7998 23.5805 17.3248 24.8711 18.3092 25.8336C19.2717 26.7961 20.5623 27.343 21.9404 27.343C23.3186 27.343 24.6092 26.818 25.5717 25.8336C27.5623 23.843 27.5623 20.5836 25.5717 18.5711C23.5592 16.5805 20.3217 16.5805 18.3092 18.5711ZM24.0842 24.3461C23.5154 24.9148 22.7498 25.243 21.9404 25.243C21.1311 25.243 20.3654 24.9367 19.7967 24.3461C19.2279 23.7773 18.8998 23.0117 18.8998 22.2023C18.8998 21.393 19.2279 20.6273 19.7967 20.0586C20.3873 19.468 21.1748 19.1617 21.9404 19.1617C22.7279 19.1617 23.4936 19.468 24.0842 20.0586C25.2654 21.2398 25.2654 23.1648 24.0842 24.3461Z" fill="black"/>
</svg>
