<svg width="56" height="56" viewBox="0 0 56 56" fill="none" xmlns="http://www.w3.org/2000/svg">
<path d="M5.79678 14.2183C5.07491 12.3371 4.50616 10.3683 4.09053 8.37769C3.93741 7.61206 3.78428 6.86831 3.65303 6.10269C3.56553 5.62144 3.49991 5.11831 3.41241 4.61519C3.36866 4.37456 3.34678 4.11206 3.30303 3.87144V3.71831C3.30303 3.67456 3.28116 3.60894 3.28116 3.56519C3.39053 3.56519 3.49991 3.58706 3.60928 3.60894L3.80616 3.63081C4.30928 3.69644 4.79053 3.76206 5.29366 3.84956C6.27803 4.00269 7.24053 4.17769 8.15928 4.37456C10.0843 4.79019 11.9874 5.33706 13.803 6.01519C14.3499 6.21206 14.9405 5.94956 15.1593 5.40269C15.3562 4.85581 15.0937 4.26519 14.5468 4.04644C12.6437 3.32456 10.653 2.75581 8.61866 2.31831C7.67803 2.12144 6.67178 1.92456 5.64366 1.77144C5.14053 1.68394 4.61553 1.61831 4.11241 1.55269L3.89366 1.53081C3.41241 1.46519 2.77803 1.37769 2.09991 1.68394C1.55303 1.94644 1.20303 2.51519 1.15928 3.21519C1.13741 3.52144 1.18116 3.80581 1.20303 4.02456L1.22491 4.15581C1.26866 4.41831 1.29053 4.68081 1.33428 4.94331C1.39991 5.44644 1.48741 5.97144 1.57491 6.47456C1.70616 7.26206 1.85928 8.04956 2.03428 8.83706C2.47178 10.9371 3.08428 12.9933 3.82803 15.0058C3.98116 15.4214 4.37491 15.6839 4.81241 15.6839C4.94366 15.6839 5.05303 15.6621 5.18428 15.6183C5.73116 15.3777 5.99366 14.7652 5.79678 14.2183Z" fill="white"/>
<path d="M54.5345 49.6993C53.9657 49.1305 53.8345 48.1024 53.6813 47.0743C53.3751 44.9524 52.4782 41.0368 49.7657 38.6087C48.5845 37.5587 47.2063 36.9243 45.6751 36.7274C43.3563 36.4212 40.9282 37.2524 39.047 39.0024C37.1657 40.7524 36.1595 43.093 36.2907 45.4555C36.5313 49.9618 40.797 52.4555 44.3845 53.243C45.3907 53.4618 46.4188 53.6805 47.0095 54.2493C47.2063 54.4462 47.4907 54.5555 47.7751 54.5555C47.9282 54.5555 48.0595 54.5337 48.2126 54.4681C48.9126 54.1399 48.8688 53.3524 48.847 53.0243C48.7595 51.7555 47.9938 50.9462 47.4032 50.3118C47.1845 50.0712 46.9657 49.8306 46.7907 49.6118C46.5938 49.3274 46.5063 49.0212 46.572 48.7805C46.6376 48.5618 46.8126 48.3868 47.1188 48.2337C47.7751 47.9274 48.6938 47.993 49.2626 48.4087C49.6126 48.6493 49.897 49.043 50.2251 49.4368C50.7063 50.0493 51.2532 50.7274 52.0626 51.1431C52.4563 51.3399 52.8501 51.4712 53.3532 51.5368C53.6813 51.5587 54.4251 51.6024 54.7532 50.9024C54.9282 50.5087 54.8407 50.0274 54.5345 49.6993ZM50.4876 46.7024C49.3063 45.8493 47.5563 45.6962 46.222 46.3305C45.3688 46.7462 44.7563 47.4243 44.5376 48.2337C44.3188 49.0649 44.5157 50.0055 45.0626 50.793C45.1938 50.9899 45.347 51.1649 45.5001 51.3399C45.2595 51.2743 45.0407 51.2305 44.822 51.1868C41.9563 50.5743 38.5657 48.6712 38.3688 45.3462C38.2813 43.618 39.047 41.868 40.4688 40.5337C41.6938 39.3962 43.2251 38.7618 44.7126 38.7618C44.9313 38.7618 45.172 38.7837 45.3907 38.8055C46.5063 38.9587 47.5126 39.418 48.3657 40.1837C49.9845 41.6274 51.1657 44.2524 51.6032 47.4243C51.6251 47.5774 51.647 47.7305 51.6688 47.9055C51.3407 47.468 50.9688 47.0305 50.4876 46.7024Z" fill="white"/>
<path d="M40.4903 32.2219L39.4403 29.3782C39.0028 28.2188 38.5215 27.0594 37.9965 25.9438L46.7903 17.15C47.4684 16.4719 47.6653 15.4438 47.2497 14.5688C46.834 13.6938 45.959 13.1688 44.9965 13.2344L30.0997 14.3282C26.7528 10.8282 22.9028 7.96255 18.6153 5.84067C18.5059 5.77505 18.3965 5.73129 18.2434 5.66567C17.8497 5.46879 17.3684 5.55629 17.0622 5.86254L5.5559 17.3469C5.24965 17.6532 5.16215 18.1344 5.35903 18.55L5.51215 18.8563C7.6559 23.1657 10.4997 27.0375 14.0215 30.3844L12.9278 45.3032C12.8622 46.2657 13.3872 47.1625 14.2622 47.5563C14.5684 47.7094 14.8965 47.775 15.2247 47.775C15.8153 47.775 16.4059 47.5344 16.8434 47.0969L25.6372 38.2813C26.7528 38.8063 27.9122 39.2875 29.0497 39.7032L31.8934 40.7532C32.2653 40.8844 32.7028 40.7969 32.9872 40.5125L40.2278 33.3157C40.534 33.0313 40.6434 32.5938 40.4903 32.2219ZM32.0247 38.5438L29.8153 37.7125C28.5028 37.2313 27.1903 36.6625 25.9215 36.05C25.5278 35.8532 25.0465 35.9407 24.7184 36.2469L15.3997 45.5875C15.3778 45.6094 15.2903 45.6969 15.159 45.6313C15.0278 45.5657 15.0278 45.4782 15.0497 45.4344L16.1653 30.0125C16.1872 29.6844 16.0559 29.3782 15.8372 29.1594C12.4247 26.0313 9.64653 22.3563 7.5684 18.2875L18.0028 7.85317C22.0934 9.9313 25.7684 12.7094 28.9184 16.1C29.1372 16.3407 29.4434 16.45 29.7715 16.4282L45.1715 15.2907C45.2153 15.2907 45.3028 15.2907 45.3684 15.4C45.434 15.5313 45.3465 15.6188 45.3247 15.6407L36.0059 24.9594C35.6997 25.2657 35.6122 25.7469 35.809 26.1625C36.4215 27.4313 36.9903 28.7438 37.4934 30.1L38.3028 32.3094L32.0247 38.5438Z" fill="white"/>
<path d="M18.3092 18.5711C17.3467 19.5336 16.7998 20.8242 16.7998 22.2023C16.7998 23.5805 17.3248 24.8711 18.3092 25.8336C19.2717 26.7961 20.5623 27.343 21.9404 27.343C23.3186 27.343 24.6092 26.818 25.5717 25.8336C27.5623 23.843 27.5623 20.5836 25.5717 18.5711C23.5592 16.5805 20.3217 16.5805 18.3092 18.5711ZM24.0842 24.3461C23.5154 24.9148 22.7498 25.243 21.9404 25.243C21.1311 25.243 20.3654 24.9367 19.7967 24.3461C19.2279 23.7773 18.8998 23.0117 18.8998 22.2023C18.8998 21.393 19.2279 20.6273 19.7967 20.0586C20.3873 19.468 21.1748 19.1617 21.9404 19.1617C22.7279 19.1617 23.4936 19.468 24.0842 20.0586C25.2654 21.2398 25.2654 23.1648 24.0842 24.3461Z" fill="white"/>
</svg>
