<svg width="40" height="40" viewBox="0 0 40 40" fill="none" xmlns="http://www.w3.org/2000/svg">
<path d="M30 0.000976562H10C7.34784 0.000976563 4.8043 1.05454 2.92893 2.92991C1.05357 4.80527 0 7.34881 0 10.001V30.001C0 32.6531 1.05357 35.1967 2.92893 37.072C4.8043 38.9474 7.34784 40.001 10 40.001H30C32.6522 40.001 35.1957 38.9474 37.0711 37.072C38.9464 35.1967 40 32.6531 40 30.001V10.001C40 7.34881 38.9464 4.80527 37.0711 2.92991C35.1957 1.05454 32.6522 0.000976563 30 0.000976562ZM24.98 29.561H21.86C21.7355 29.5782 21.6093 29.546 21.5083 29.4712C21.4074 29.3965 21.3397 29.2851 21.32 29.161C20.94 28.041 20.54 26.921 20.16 25.781C20.148 25.7095 20.1218 25.6412 20.0828 25.58C20.0439 25.5189 19.9931 25.4663 19.9333 25.4252C19.8736 25.3841 19.8062 25.3555 19.7352 25.3411C19.6642 25.3266 19.591 25.3266 19.52 25.341H14.2C14.1261 25.3235 14.0494 25.3219 13.9748 25.3361C13.9002 25.3503 13.8295 25.3801 13.7672 25.4235C13.705 25.4669 13.6525 25.523 13.6134 25.588C13.5742 25.6531 13.5492 25.7256 13.54 25.801C13.2 26.921 12.82 28.001 12.48 29.121C12.4705 29.1916 12.4465 29.2596 12.4097 29.3206C12.3728 29.3816 12.3237 29.4344 12.2656 29.4757C12.2074 29.5169 12.1414 29.5458 12.0717 29.5605C12.0019 29.5752 11.9298 29.5753 11.86 29.561H9.12C8.64 29.561 8.6 29.561 8.76 29.061L13.08 16.601C13.48 15.461 13.88 14.321 14.24 13.181C14.3418 12.8435 14.3957 12.4934 14.4 12.141C14.4 11.721 14.56 11.621 14.94 11.641H18.76C19.04 11.641 19.18 11.641 19.28 12.021L24.2 25.881C24.58 26.961 24.96 28.021 25.32 29.081C25.48 29.521 25.46 29.561 24.98 29.561ZM31.1 29.221C31.1 29.561 30.96 29.661 30.64 29.661H27.76C27.36 29.661 27.26 29.501 27.26 29.141V16.581C27.26 16.181 27.38 16.021 27.8 16.041H30.62C30.94 16.041 31.1 16.041 31.1 16.481C31.086 20.721 31.086 24.967 31.1 29.221ZM29.1 14.621C28.8134 14.6392 28.5263 14.5954 28.2581 14.4928C27.99 14.3901 27.747 14.2309 27.5459 14.0259C27.3448 13.821 27.1901 13.5751 27.0925 13.3051C26.9948 13.0351 26.9564 12.7472 26.98 12.461C26.9828 12.1766 27.0422 11.8956 27.1548 11.6344C27.2673 11.3733 27.4308 11.1371 27.6356 10.9398C27.8404 10.7424 28.0824 10.5879 28.3476 10.485C28.6127 10.3822 28.8957 10.3333 29.18 10.341C29.4567 10.3401 29.7305 10.3966 29.9842 10.507C30.2379 10.6173 30.466 10.7791 30.6539 10.9822C30.8419 11.1852 30.9857 11.425 31.0763 11.6864C31.1668 11.9478 31.2021 12.2252 31.18 12.501C31.1964 12.7735 31.1568 13.0466 31.0636 13.3032C30.9705 13.5599 30.8258 13.7948 30.6384 13.9934C30.451 14.192 30.225 14.3502 29.9741 14.4581C29.7233 14.566 29.4531 14.6215 29.18 14.621H29.1Z" fill="#989898" fill-opacity="0.3"/>
</svg>
