<svg width="40" height="40" viewBox="0 0 40 40" fill="none" xmlns="http://www.w3.org/2000/svg">
<path d="M16.8207 14.9609C17.5207 17.2409 18.2407 19.5209 18.9607 21.8409H14.7207C15.4407 19.5209 16.1207 17.2409 16.8207 14.9609Z" fill="#989898" fill-opacity="0.3"/>
<path d="M30 0H10C7.34784 0 4.8043 1.05357 2.92893 2.92893C1.05357 4.8043 0 7.34784 0 10V30C0 32.6522 1.05357 35.1957 2.92893 37.0711C4.8043 38.9464 7.34784 40 10 40H30C32.6522 40 35.1957 38.9464 37.0711 37.0711C38.9464 35.1957 40 32.6522 40 30V10C40 7.34784 38.9464 4.8043 37.0711 2.92893C35.1957 1.05357 32.6522 0 30 0ZM24.98 29.56H21.86C21.7355 29.5773 21.6093 29.545 21.5083 29.4703C21.4074 29.3955 21.3397 29.2841 21.32 29.16C20.94 28.04 20.54 26.92 20.16 25.78C20.148 25.7085 20.1218 25.6402 20.0828 25.5791C20.0439 25.5179 19.9931 25.4653 19.9333 25.4242C19.8736 25.3832 19.8062 25.3545 19.7352 25.3401C19.6642 25.3256 19.591 25.3256 19.52 25.34H14.2C14.1261 25.3226 14.0494 25.3209 13.9748 25.3351C13.9002 25.3494 13.8295 25.3791 13.7672 25.4226C13.705 25.466 13.6525 25.522 13.6134 25.587C13.5742 25.6521 13.5492 25.7246 13.54 25.8C13.2 26.92 12.82 28 12.48 29.12C12.4705 29.1907 12.4465 29.2586 12.4097 29.3196C12.3728 29.3807 12.3237 29.4334 12.2656 29.4747C12.2074 29.516 12.1414 29.5448 12.0717 29.5595C12.0019 29.5742 11.9298 29.5744 11.86 29.56H9.12C8.64 29.56 8.6 29.56 8.76 29.06L13.08 16.6C13.48 15.46 13.88 14.32 14.24 13.18C14.3418 12.8425 14.3957 12.4925 14.4 12.14C14.4 11.72 14.56 11.62 14.94 11.64H18.76C19.04 11.64 19.18 11.64 19.28 12.02L24.2 25.88C24.58 26.96 24.96 28.02 25.32 29.08C25.48 29.52 25.46 29.56 24.98 29.56ZM31.1 29.22C31.1 29.56 30.96 29.66 30.64 29.66H27.76C27.36 29.66 27.26 29.5 27.26 29.14V16.58C27.26 16.18 27.38 16.02 27.8 16.04H30.62C30.94 16.04 31.1 16.04 31.1 16.48C31.086 20.72 31.086 24.966 31.1 29.22ZM29.1 14.62C28.8134 14.6382 28.5263 14.5945 28.2581 14.4918C27.99 14.3891 27.747 14.2299 27.5459 14.025C27.3448 13.82 27.1901 13.5742 27.0925 13.3041C26.9948 13.0341 26.9564 12.7462 26.98 12.46C26.9828 12.1756 27.0422 11.8946 27.1548 11.6335C27.2673 11.3723 27.4308 11.1361 27.6356 10.9388C27.8404 10.7415 28.0824 10.5869 28.3476 10.4841C28.6127 10.3813 28.8957 10.3323 29.18 10.34C29.4567 10.3391 29.7305 10.3956 29.9842 10.506C30.2379 10.6164 30.466 10.7782 30.6539 10.9812C30.8419 11.1842 30.9857 11.424 31.0763 11.6854C31.1668 11.9468 31.2021 12.2242 31.18 12.5C31.1964 12.7726 31.1568 13.0456 31.0636 13.3023C30.9705 13.5589 30.8258 13.7938 30.6384 13.9924C30.451 14.1911 30.225 14.3492 29.9741 14.4571C29.7233 14.5651 29.4531 14.6205 29.18 14.62H29.1Z" fill="#989898" fill-opacity="0.3"/>
</svg>
