<svg width="40" height="40" viewBox="0 0 40 40" fill="none" xmlns="http://www.w3.org/2000/svg">
<path d="M27.1477 7.79193L28.095 7.82323C28.4424 7.85453 28.7897 7.91712 29.1687 7.97972L28.3792 5.66366L23.7057 1.06283C22.6321 -0.00130593 21.1795 -0.314287 20.4217 0.342974L9.02215 7.82323L27.1477 7.79193ZM29.0739 8.91866C28.695 8.85607 28.3477 8.79347 28.0319 8.76217L27.1161 8.73087L9.43266 8.76217L34.2527 33.3625L36.1789 29.0434L29.0739 8.91866ZM8.92742 28.8243L29.2318 35.929L33.5895 34.0198L8.76953 9.41943V26.9777L8.80111 27.8227C8.80111 28.1044 8.83269 28.4487 8.92742 28.8243Z" fill="#989898" fill-opacity="0.3"/>
<path d="M33.5582 10.7063C32.7371 9.8925 31.3477 9.11005 29.9899 8.67188L37.1896 29.0783L35.0107 33.9921L40 32.3646V17.1224L33.5582 10.7063ZM29.2952 36.9341L8.76972 29.7668C9.21181 31.1126 9.96968 32.4898 10.8223 33.3348L17.5483 39.97L32.5793 40.0013L34.2529 34.7745L29.2952 36.9341ZM7.85397 27.8576L7.8224 27.0126V9.01615L0.338498 20.3461C-0.324632 21.0346 0.0227218 22.5057 1.06478 23.6011L5.7067 28.2332L8.01186 29.047C7.91713 28.6401 7.85397 28.2645 7.85397 27.8576Z" fill="#989898" fill-opacity="0.3"/>
</svg>
