<svg width="40" height="40" viewBox="0 0 40 40" fill="none" xmlns="http://www.w3.org/2000/svg">
<path d="M27.6934 21.411V18.5859H30.7703V21.411H27.6934Z" fill="#989898" fill-opacity="0.3"/>
<path fill-rule="evenodd" clip-rule="evenodd" d="M20 0L40 10.7126V29.2846L20 40L0 29.2846V10.7126L20 0ZM16.4062 10.1109C13.6871 10.1109 11.0794 11.1026 9.15668 12.8679C7.234 14.6332 6.15385 17.0275 6.15385 19.524V20.4732C6.15426 22.0772 6.60111 23.6546 7.45198 25.0555C8.30286 26.4564 9.52954 27.6345 11.0156 28.4779C12.5017 29.3213 14.1978 29.802 15.9431 29.8745C17.6883 29.9469 19.4248 29.6087 20.9877 28.8919L22.2277 28.3269L20.8492 25.7984L19.6123 26.3634C18.519 26.8657 17.3039 27.103 16.0826 27.0529C14.8612 27.0027 13.6741 26.6667 12.634 26.0769C11.5939 25.487 10.7352 24.6628 10.1396 23.6825C9.54394 22.7023 9.2311 21.5985 9.23077 20.476V19.5268C9.2309 18.4041 9.54351 17.3001 10.1389 16.3195C10.7343 15.339 11.5928 14.5143 12.6328 13.924C13.6729 13.3336 14.86 12.997 16.0815 12.9462C17.303 12.8954 18.5184 13.1321 19.6123 13.6337L20.8492 14.2016L22.2277 11.676L20.9877 11.1081C19.5645 10.4534 17.998 10.112 16.4062 10.1109ZM24.6154 12.9359V15.761H21.5385V18.5861H24.6154V21.4111H21.5385V24.2362H24.6154V27.0612H27.6923V24.2362H30.7692V27.0612H33.8462V24.2362H36.9231V21.4111H33.8462V18.5861H36.9231V15.761H33.8462V12.9359H30.7692V15.761H27.6923V12.9359H24.6154Z" fill="#989898" fill-opacity="0.3"/>
</svg>
