<svg width="40" height="40" viewBox="0 0 40 40" fill="none" xmlns="http://www.w3.org/2000/svg">
<path fill-rule="evenodd" clip-rule="evenodd" d="M5.8309 0.000976562H34.1691C37.3894 0.000976562 40 2.61156 40 5.83188V34.1701C40 37.3904 37.3894 40.001 34.1691 40.001H5.8309C2.61058 40.001 0 37.3904 0 34.1701V5.83188C0 2.61156 2.61058 0.000976562 5.8309 0.000976562ZM16.9226 34.5796C16.3177 34.8302 15.6694 34.9591 15.0147 34.9591C13.6925 34.9591 12.4244 34.4339 11.4895 33.4989C10.5545 32.564 10.0293 31.2959 10.0293 29.9737C10.0293 28.6515 10.5545 27.3834 11.4895 26.4485C12.4244 25.5135 13.6925 24.9883 15.0147 24.9883H20.0001V29.9737C20.0001 30.6284 19.8712 31.2767 19.6206 31.8815C19.3701 32.4864 19.0029 33.036 18.5399 33.4989C18.077 33.9619 17.5274 34.3291 16.9226 34.5796ZM10.0293 19.9991C10.0293 18.6769 10.5545 17.4088 11.4895 16.4739C12.3952 15.5681 13.6136 15.0469 14.8909 15.0152C13.6136 14.9835 12.3952 14.4623 11.4895 13.5565C10.5545 12.6216 10.0293 11.3535 10.0293 10.0313C10.0293 8.7091 10.5545 7.44104 11.4895 6.50609C12.4244 5.57115 13.6925 5.0459 15.0147 5.0459H20.0001V5.07495H24.9854C26.3076 5.07495 27.5757 5.6002 28.5106 6.53515C29.4456 7.4701 29.9708 8.73816 29.9708 10.0604C29.9708 11.3826 29.4456 12.6507 28.5106 13.5856C27.6704 14.4258 26.5612 14.9351 25.3854 15.0297C26.5612 15.1243 27.6704 15.6337 28.5107 16.4739C29.4456 17.4088 29.9708 18.6769 29.9708 19.9991C29.9708 20.9851 29.6785 21.949 29.1307 22.7688C28.5828 23.5887 27.8042 24.2277 26.8933 24.605C25.9823 24.9824 24.9799 25.0811 24.0128 24.8887C23.0457 24.6964 22.1574 24.2215 21.4602 23.5243C20.763 22.8271 20.2882 21.9388 20.0958 20.9717C20.0342 20.6622 20.0025 20.3492 20.0001 20.0366V24.9845H15.0147C13.6925 24.9845 12.4244 24.4593 11.4895 23.5243C10.5545 22.5894 10.0293 21.3213 10.0293 19.9991ZM20.0001 19.9617C20.0049 19.3227 20.1326 18.6874 20.3795 18.0913C20.7568 17.1803 21.3958 16.4017 22.2157 15.8539C22.878 15.4113 23.6343 15.1355 24.4203 15.0458H20.0001V19.9617Z" fill="#989898" fill-opacity="0.3"/>
</svg>
