<svg width="40" height="40" viewBox="0 0 40 40" fill="none" xmlns="http://www.w3.org/2000/svg">
<path d="M34.1691 0H5.8309C2.61058 0 0 2.61058 0 5.8309V34.1691C0 37.3894 2.61058 40 5.8309 40H34.1691C37.3894 40 40 37.3894 40 34.1691V5.8309C40 2.61058 37.3894 0 34.1691 0Z" fill="#989898" fill-opacity="0.3"/>
<path d="M34.1691 1.74927C35.2516 1.74927 36.2898 2.1793 37.0552 2.94475C37.8207 3.71021 38.2507 4.74839 38.2507 5.8309V34.1691C38.2507 35.2516 37.8207 36.2898 37.0552 37.0552C36.2898 37.8207 35.2516 38.2507 34.1691 38.2507H5.8309C4.74839 38.2507 3.71021 37.8207 2.94475 37.0552C2.1793 36.2898 1.74927 35.2516 1.74927 34.1691V5.8309C1.74927 4.74839 2.1793 3.71021 2.94475 2.94475C3.71021 2.1793 4.74839 1.74927 5.8309 1.74927H34.1691ZM34.1691 0H5.8309C4.28445 0 2.80134 0.614325 1.70783 1.70783C0.614325 2.80134 0 4.28445 0 5.8309V34.1691C0 35.7155 0.614325 37.1987 1.70783 38.2922C2.80134 39.3857 4.28445 40 5.8309 40H34.1691C35.7155 40 37.1987 39.3857 38.2922 38.2922C39.3857 37.1987 40 35.7155 40 34.1691V5.8309C40 4.28445 39.3857 2.80134 38.2922 1.70783C37.1987 0.614325 35.7155 0 34.1691 0Z" fill="#2E2E2E"/>
<path d="M15.0147 34.9581C15.6694 34.9581 16.3177 34.8292 16.9226 34.5787C17.5274 34.3281 18.077 33.9609 18.5399 33.498C19.0029 33.035 19.3701 32.4854 19.6206 31.8806C19.8712 31.2757 20.0001 30.6274 20.0001 29.9727V24.9873H15.0147C13.6925 24.9873 12.4244 25.5126 11.4895 26.4475C10.5545 27.3825 10.0293 28.6505 10.0293 29.9727C10.0293 31.2949 10.5545 32.563 11.4895 33.498C12.4244 34.4329 13.6925 34.9581 15.0147 34.9581Z" fill="black"/>
<path d="M10.0293 19.9981C10.0293 18.6759 10.5545 17.4078 11.4895 16.4729C12.4244 15.5379 13.6925 15.0127 15.0147 15.0127H20.0001V24.9835H15.0147C13.6925 24.9835 12.4244 24.4583 11.4895 23.5233C10.5545 22.5884 10.0293 21.3203 10.0293 19.9981Z" fill="black"/>
<path d="M10.0293 10.0303C10.0293 8.70813 10.5545 7.44007 11.4895 6.50512C12.4244 5.57017 13.6925 5.04492 15.0147 5.04492H20.0001V15.0158H15.0147C13.6925 15.0158 12.4244 14.4905 11.4895 13.5556C10.5545 12.6206 10.0293 11.3526 10.0293 10.0303Z" fill="black"/>
<path d="M20 5.07422H24.9854C26.3076 5.07422 27.5757 5.59947 28.5106 6.53442C29.4456 7.46936 29.9708 8.73743 29.9708 10.0596C29.9708 11.3819 29.4456 12.6499 28.5106 13.5849C27.5757 14.5198 26.3076 15.0451 24.9854 15.0451H20V5.07422Z" fill="black"/>
<path d="M29.9708 19.9981C29.9708 20.9841 29.6785 21.948 29.1307 22.7679C28.5828 23.5877 27.8042 24.2267 26.8933 24.604C25.9823 24.9814 24.9799 25.0801 24.0128 24.8877C23.0457 24.6954 22.1574 24.2206 21.4602 23.5233C20.763 22.8261 20.2882 21.9378 20.0958 20.9707C19.9034 20.0036 20.0022 19.0012 20.3795 18.0903C20.7568 17.1793 21.3958 16.4007 22.2157 15.8529C23.0355 15.3051 23.9994 15.0127 24.9854 15.0127C26.3076 15.0127 27.5757 15.5379 28.5106 16.4729C29.4456 17.4078 29.9708 18.6759 29.9708 19.9981Z" fill="black"/>
</svg>
