<svg width="40" height="40" viewBox="0 0 40 40" fill="none" xmlns="http://www.w3.org/2000/svg">
<path d="M6.66667 0C4.89856 0 3.20286 0.702379 1.95262 1.95262C0.702379 3.20286 0 4.89856 0 6.66667V33.3333C0 35.1014 0.702379 36.7971 1.95262 38.0474C3.20286 39.2976 4.89856 40 6.66667 40H33.3333C35.1014 40 36.7971 39.2976 38.0474 38.0474C39.2976 36.7971 40 35.1014 40 33.3333V6.66667C40 4.89856 39.2976 3.20286 38.0474 1.95262C36.7971 0.702379 35.1014 0 33.3333 0H6.66667ZM22.9644 29.0111C24.5644 30.3 26.16 30.9333 27.7556 30.9178C28.7333 30.9178 29.4844 30.74 30.0044 30.38C30.2472 30.2224 30.4448 30.0043 30.5777 29.7471C30.7106 29.4899 30.7742 29.2026 30.7622 28.9133C30.7655 28.5979 30.6995 28.2856 30.5689 27.9984C30.4384 27.7112 30.2465 27.4561 30.0067 27.2511C29.4844 26.7956 28.4978 26.34 27.0467 25.8822C25.3044 25.3778 23.9578 24.7267 23.0133 23.9267C22.0844 23.1267 21.6133 22.0111 21.5956 20.5778C21.5956 19.2244 22.1822 18.0933 23.3556 17.18C24.4978 16.2689 25.9556 15.8111 27.7333 15.8111C30.2089 15.8111 32.1978 16.4133 33.6956 17.62L31.9844 20.2844C31.3684 19.8052 30.6616 19.456 29.9067 19.2578C29.2283 19.0309 28.5196 18.9073 27.8044 18.8911C26.96 18.8911 26.2822 19.0467 25.7756 19.3556C25.2711 19.6667 25.02 20.0733 25.02 20.5778C25.02 21.1333 25.3289 21.6044 25.9467 21.9956C26.5689 22.3711 27.6267 22.7867 29.1244 23.2422C30.9333 23.78 32.2222 24.4978 32.9867 25.3933C33.7533 26.2889 34.1356 27.4311 34.1356 28.8156C34.1356 30.2333 33.5911 31.4556 32.4978 32.4822C31.4222 33.4933 29.8578 34.0222 27.8044 34.0711C25.1156 34.0711 22.8667 33.2644 21.0578 31.6511L22.9644 29.0111ZM10.6756 30.4289C11.1978 30.7556 11.8244 30.9178 12.5578 30.9178C13.3244 30.9178 13.9578 30.6978 14.4644 30.2578C14.9689 29.8022 15.2222 29.0111 15.2222 27.8867V16.1044H18.5222V28.5222C18.4733 30.4444 17.92 31.8311 16.86 32.6778C16.2816 33.1696 15.6074 33.5358 14.88 33.7533C14.2063 33.9586 13.5065 34.0656 12.8022 34.0711C11.58 34.0711 10.4956 33.86 9.55111 33.4356C8.54 32.98 7.69333 32.1733 7.00889 31.0156L9.30667 29.1333C9.72889 29.7044 10.1867 30.1356 10.6756 30.4289Z" fill="#989898" fill-opacity="0.3"/>
</svg>
