<svg width="22" height="22" viewBox="0 0 22 22" fill="none" xmlns="http://www.w3.org/2000/svg">
<path d="M20 8.00001L20 2.00001H14" fill="white"/>
<path d="M20 8.00001L20 2.00001M20 2.00001H14M20 2.00001L11 11M9 2H6.8C5.11984 2 4.27976 2 3.63803 2.32698C3.07354 2.6146 2.6146 3.07354 2.32698 3.63803C2 4.27976 2 5.11984 2 6.8V15.2C2 16.8802 2 17.7202 2.32698 18.362C2.6146 18.9265 3.07354 19.3854 3.63803 19.673C4.27976 20 5.11984 20 6.8 20H15.2C16.8802 20 17.7202 20 18.362 19.673C18.9265 19.3854 19.3854 18.9265 19.673 18.362C20 17.7202 20 16.8802 20 15.2V13" stroke="white" stroke-width="2.5" stroke-linecap="round" stroke-linejoin="round"/>
</svg>
