<svg width="28" height="28" viewBox="0 0 28 28" fill="none" xmlns="http://www.w3.org/2000/svg">
<path d="M25.4 9.80001L25.4 2.00001H17.6" fill="black"/>
<path d="M25.4 9.80001L25.4 2.00001M25.4 2.00001H17.6M25.4 2.00001L13.7 13.7M11.1 2H8.24C6.0558 2 4.96369 2 4.12944 2.42507C3.3956 2.79898 2.79898 3.3956 2.42507 4.12944C2 4.96369 2 6.05579 2 8.24V19.16C2 21.3442 2 22.4363 2.42507 23.2706C2.79898 24.0044 3.3956 24.601 4.12944 24.9749C4.96369 25.4 6.05579 25.4 8.24 25.4H19.16C21.3442 25.4 22.4363 25.4 23.2706 24.9749C24.0044 24.601 24.601 24.0044 24.9749 23.2706C25.4 22.4363 25.4 21.3442 25.4 19.16V16.3" stroke="black" stroke-width="3.25" stroke-linecap="round" stroke-linejoin="round"/>
</svg>
