<svg width="36" height="31" viewBox="0 0 36 31" fill="none" xmlns="http://www.w3.org/2000/svg">
<path fill-rule="evenodd" clip-rule="evenodd" d="M17.9962 6.22477H6.86368V12.3753L17.9962 12.3753V6.22477ZM6.86368 0.0742188C3.46683 0.0742188 0.713133 2.82791 0.713133 6.22477V12.3753C0.713133 15.7722 3.46683 18.5259 6.86369 18.5259H17.9959V12.376H24.1465V18.5259H24.1467V12.3753V6.22477V0.0742188H24.1464V6.22476H17.9959V0.0742188H6.86368ZM24.1465 18.5259V18.5265H17.9959V18.5259H17.9962H24.1465Z" fill="white"/>
<path fill-rule="evenodd" clip-rule="evenodd" d="M18.0048 12.3722H29.1373V18.5228L18.0048 18.5228V12.3722ZM29.1373 6.22168C32.5341 6.22168 35.2878 8.97537 35.2878 12.3722V18.5228C35.2878 21.9196 32.5341 24.6733 29.1373 24.6733H18.005V18.5234H11.8545V24.6733H11.8542V18.5228V12.3722V6.22168H11.8545V12.3722H18.0051V6.22168H29.1373ZM11.8545 24.6733V24.674H18.005V24.6733H18.0048H11.8545Z" fill="white"/>
<rect x="11.8452" y="24.6748" width="6.15054" height="6.15054" rx="0.307527" fill="white"/>
</svg>
