<svg width="36" height="31" viewBox="0 0 36 31" fill="none" xmlns="http://www.w3.org/2000/svg">
<path fill-rule="evenodd" clip-rule="evenodd" d="M17.9959 6.22477H6.86344V12.3753L17.9959 12.3753V6.22477ZM6.86344 0.0742188C3.46658 0.0742188 0.712889 2.82791 0.712889 6.22477V12.3753C0.712889 15.7722 3.46659 18.5259 6.86344 18.5259H17.9957V12.376H24.1462V18.5259H24.1465V12.3753V6.22477V0.0742188H24.1462V6.22476H17.9957V0.0742188H6.86344ZM24.1462 18.5259V18.5265H17.9957V18.5259H17.9959H24.1462Z" fill="black"/>
<path fill-rule="evenodd" clip-rule="evenodd" d="M18.0046 12.3722H29.137V18.5228L18.0046 18.5228V12.3722ZM29.137 6.22168C32.5339 6.22168 35.2876 8.97537 35.2876 12.3722V18.5228C35.2876 21.9196 32.5339 24.6733 29.137 24.6733H18.0048V18.5234H11.8542V24.6733H11.854V18.5228V12.3722V6.22168H11.8543V12.3722H18.0048V6.22168H29.137ZM11.8542 24.6733V24.674H18.0048V24.6733H18.0046H11.8542Z" fill="black"/>
<rect x="11.8452" y="24.6748" width="6.15054" height="6.15054" rx="0.307527" fill="black"/>
</svg>
