<svg width="9" height="9" viewBox="0 0 9 9" fill="none" xmlns="http://www.w3.org/2000/svg">
<path d="M4.74765 9C4.49039 8.99989 4.23357 8.97887 3.97971 8.93713C2.738 8.73278 1.62792 8.04253 0.893298 7.01798C0.158674 5.99343 -0.140433 4.71836 0.06167 3.47281C0.174763 2.76373 0.447328 2.08978 0.858704 1.50204C1.27008 0.914288 1.80947 0.42817 2.436 0.0805253C2.5417 0.0212954 2.66215 -0.00624203 2.783 0.00118804C2.90386 0.00861812 3.02004 0.050703 3.11774 0.122438C3.2176 0.19096 3.29545 0.287109 3.34183 0.399189C3.3882 0.511269 3.40109 0.634448 3.37894 0.753743L3.03938 0.727547L3.36066 0.785177C3.1794 1.74942 3.34878 2.74688 3.83808 3.5966C4.32738 4.44631 5.10417 5.09199 6.02754 5.41649C6.73863 5.66398 7.50362 5.71199 8.23993 5.55533C8.35643 5.5324 8.47701 5.54256 8.58807 5.58467C8.69913 5.62678 8.79625 5.69917 8.86848 5.79367C8.94071 5.88817 8.98519 6.00103 8.9969 6.11952C9.0086 6.23801 8.98707 6.35743 8.93472 6.4643C8.53187 7.22816 7.92936 7.86769 7.19177 8.31438C6.45417 8.76107 5.60929 8.99807 4.74765 9ZM2.7181 0.672537C2.2185 0.956636 1.7841 1.343 1.44316 1.80651C1.10222 2.27002 0.862357 2.8003 0.739177 3.36287C0.615996 3.92545 0.612251 4.50773 0.728184 5.07185C0.844118 5.63597 1.07714 6.16931 1.41209 6.63719C1.8158 7.20314 2.35644 7.6568 2.98314 7.95548C3.60984 8.25417 4.302 8.38806 4.99451 8.34457C5.68702 8.30109 6.35712 8.08164 6.94177 7.70689C7.52642 7.33213 8.00641 6.81439 8.33657 6.20235C7.49642 6.37172 6.62646 6.31386 5.81596 6.0347C4.74655 5.65865 3.84648 4.91146 3.27836 3.92808C2.71024 2.94471 2.51152 1.79 2.7181 0.672537Z" fill="#676767"/>
</svg>
