<svg width="40" height="40" viewBox="0 0 40 40" fill="none" xmlns="http://www.w3.org/2000/svg">
<path d="M17.2596 18.2155C17.1411 18.5879 16.9305 18.9242 16.6473 19.1935C16.3641 19.4627 16.0175 19.656 15.6396 19.7555C14.5874 20.0563 13.4847 20.138 12.3996 19.9955C12.1796 19.9955 12.0996 19.9955 12.0996 19.6755V14.7955C12.0996 14.6155 12.0996 14.4555 12.3396 14.4555C13.2876 14.4415 14.2376 14.4895 15.1796 14.5955C15.5826 14.6429 15.9689 14.784 16.3076 15.0075C16.6462 15.2309 16.9279 15.5305 17.1301 15.8824C17.3322 16.2342 17.4492 16.6284 17.4717 17.0336C17.4942 17.4387 17.4216 17.8435 17.2596 18.2155Z" fill="#989898" fill-opacity="0.3"/>
<path d="M30 0H10C7.34784 0 4.8043 1.05357 2.92893 2.92893C1.05357 4.8043 0 7.34784 0 10V30C0 32.6522 1.05357 35.1957 2.92893 37.0711C4.8043 38.9464 7.34784 40 10 40H30C32.6522 40 35.1957 38.9464 37.0711 37.0711C38.9464 35.1957 40 32.6522 40 30V10C40 7.34784 38.9464 4.8043 37.0711 2.92893C35.1957 1.05357 32.6522 0 30 0ZM19.72 21.14C18.6942 22.2972 17.2612 23.0137 15.72 23.14C14.72 23.26 13.72 23.14 12.72 23.3H12V28.44C12 28.84 12 28.9 11.58 28.9H8.74C8.44 28.9 8.32 28.8 8.32 28.48V11.58C8.32 11.32 8.32 11.18 8.68 11.18H14.2C15.5148 11.1367 16.82 11.4184 18 12C18.9216 12.4364 19.7013 13.124 20.2497 13.9837C20.798 14.8434 21.0928 15.8403 21.1 16.86C21.1688 17.6295 21.082 18.405 20.8449 19.1402C20.6079 19.8755 20.2253 20.5556 19.72 21.14ZM31.6 18.56C31.6 18.84 31.44 18.9 31.2 18.9C30.2079 18.8728 29.2208 19.0498 28.3 19.42L28.04 19.54C27.7835 19.6217 27.5634 19.7902 27.4174 20.0164C27.2714 20.2426 27.2087 20.5126 27.24 20.78V28.42C27.24 28.88 27.24 28.9 26.78 28.9H23.88C23.46 28.9 23.42 28.9 23.42 28.44V18.06C23.42 17.3 23.42 16.54 23.32 15.78C23.32 15.52 23.32 15.4 23.66 15.42H26.32C26.3851 15.4085 26.4519 15.4111 26.5159 15.4277C26.5799 15.4444 26.6395 15.4746 26.6908 15.5163C26.742 15.5581 26.7836 15.6104 26.8128 15.6697C26.8421 15.729 26.8581 15.7939 26.86 15.86C26.86 16.26 27 16.68 27.06 17.02C27.66 16.6 28.24 16.14 28.88 15.76C29.6042 15.3457 30.4257 15.1318 31.26 15.14C31.5 15.14 31.62 15.14 31.62 15.48L31.6 18.56Z" fill="#989898" fill-opacity="0.3"/>
</svg>
