<svg width="20" height="10" viewBox="0 0 20 10" fill="none" xmlns="http://www.w3.org/2000/svg">
<path d="M19.416 5.41603C19.6458 5.18626 19.6458 4.81374 19.416 4.58397L15.6718 0.839749C15.442 0.609984 15.0695 0.609984 14.8397 0.839749C14.61 1.06951 14.61 1.44203 14.8397 1.6718L18.1679 5L14.8397 8.3282C14.61 8.55797 14.61 8.93049 14.8397 9.16025C15.0695 9.39002 15.442 9.39002 15.6718 9.16025L19.416 5.41603ZM1 4.41165C0.675064 4.41165 0.411652 4.67506 0.411652 5C0.411652 5.32494 0.675064 5.58835 1 5.58835V4.41165ZM19 4.41165L1 4.41165V5.58835L19 5.58835V4.41165Z" fill="black"/>
</svg>
