<svg width="46" height="46" viewBox="0 0 46 46" fill="none" xmlns="http://www.w3.org/2000/svg">
<rect width="46" height="46" rx="23" fill="#2E2E2E"/>
<path d="M32.416 23.416C32.6458 23.1863 32.6458 22.8137 32.416 22.584L28.6718 18.8397C28.442 18.61 28.0695 18.61 27.8397 18.8397C27.61 19.0695 27.61 19.442 27.8397 19.6718L31.1679 23L27.8397 26.3282C27.61 26.558 27.61 26.9305 27.8397 27.1603C28.0695 27.39 28.442 27.39 28.6718 27.1603L32.416 23.416ZM14 22.4117C13.6751 22.4117 13.4117 22.6751 13.4117 23C13.4117 23.3249 13.6751 23.5883 14 23.5883V22.4117ZM32 22.4117L14 22.4117V23.5883L32 23.5883V22.4117Z" fill="#F5F5F5"/>
</svg>
