<svg width="15" height="15" viewBox="0 0 15 15" fill="none" xmlns="http://www.w3.org/2000/svg">
<path d="M14.7363 13.2859C13.6522 11.4254 11.9815 10.0914 10.0318 9.45896C10.9962 8.88906 11.7455 8.02067 12.1646 6.98715C12.5837 5.95363 12.6494 4.81212 12.3517 3.73793C12.054 2.66374 11.4093 1.71625 10.5166 1.04098C9.62385 0.365716 8.53252 0 7.41016 0C6.2878 0 5.19646 0.365716 4.30376 1.04098C3.41105 1.71625 2.76633 2.66374 2.4686 3.73793C2.17088 4.81212 2.23661 5.95363 2.6557 6.98715C3.0748 8.02067 3.82409 8.88906 4.78849 9.45896C2.8388 10.0907 1.16814 11.4247 0.0840216 13.2859C0.0442652 13.3502 0.0178951 13.4218 0.00646709 13.4964C-0.00496091 13.5711 -0.00121528 13.6472 0.017483 13.7204C0.0361812 13.7935 0.0694534 13.8623 0.115336 13.9225C0.161219 13.9827 0.218783 14.0331 0.284632 14.0709C0.350482 14.1086 0.423282 14.1329 0.498738 14.1423C0.574194 14.1517 0.650778 14.1459 0.72397 14.1255C0.797163 14.105 0.865481 14.0702 0.924895 14.023C0.984309 13.9759 1.03361 13.9175 1.0699 13.8511C2.41099 11.5505 4.78138 10.1769 7.41016 10.1769C10.0389 10.1769 12.4093 11.5505 13.7504 13.8511C13.7867 13.9175 13.836 13.9759 13.8954 14.023C13.9548 14.0702 14.0231 14.105 14.0963 14.1255C14.1695 14.1459 14.2461 14.1517 14.3216 14.1423C14.397 14.1329 14.4698 14.1086 14.5357 14.0709C14.6015 14.0331 14.6591 13.9827 14.705 13.9225C14.7509 13.8623 14.7841 13.7935 14.8028 13.7204C14.8215 13.6472 14.8253 13.5711 14.8138 13.4964C14.8024 13.4218 14.776 13.3502 14.7363 13.2859ZM3.42392 5.08939C3.42392 4.30678 3.65771 3.54175 4.09572 2.89104C4.53373 2.24033 5.1563 1.73316 5.88469 1.43367C6.61308 1.13418 7.41458 1.05582 8.18783 1.2085C8.96109 1.36118 9.67137 1.73804 10.2289 2.29142C10.7863 2.84481 11.166 3.54987 11.3198 4.31743C11.4736 5.085 11.3947 5.8806 11.093 6.60364C10.7913 7.32667 10.2803 7.94465 9.62479 8.37945C8.96926 8.81424 8.19856 9.04631 7.41016 9.04631C6.35329 9.04519 5.34003 8.62794 4.59271 7.88611C3.84539 7.14429 3.42505 6.13848 3.42392 5.08939Z" fill="#A2A2A2"/>
</svg>
