<svg width="40" height="40" viewBox="0 0 40 40" fill="none" xmlns="http://www.w3.org/2000/svg">
<path d="M32.75 15C32.8333 15.3732 32.8333 15.7464 32.8333 16.1196C32.8333 17.2392 32.5833 18.5081 31.9167 20.1502L28 30.0774C31.75 28.1367 34.25 24.4793 34.25 20.3741C34.25 18.4335 33.6667 16.5674 32.75 15Z" fill="#989898" fill-opacity="0.3"/>
<path d="M7.5 20.0013C7.5 24.918 10.4167 29.2513 14.5833 31.2513L8.58333 14.918C7.91667 16.5013 7.5 18.168 7.5 20.0013Z" fill="#989898" fill-opacity="0.3"/>
<path d="M28.4154 19.3333C28.4154 17.75 27.832 16.75 27.4154 15.9167C26.7487 14.9167 26.1654 14 26.1654 13C26.1654 11.8333 26.9987 10.75 28.2487 10.75C28.332 10.75 28.332 10.75 28.4154 10.75C26.2487 8.75 23.2487 7.5 19.9987 7.5C15.6654 7.5 11.7487 9.75 9.58203 13.1667C9.91536 13.1667 10.1654 13.1667 10.4154 13.1667C11.7487 13.1667 13.7487 13 13.7487 13C14.4154 13 14.4987 13.9167 13.832 14C13.832 14 13.1654 14.0833 12.4154 14.0833L16.9987 27.5833L19.7487 19.4167L17.6654 14.1667C16.9987 14.1667 16.332 14.0833 16.332 14.0833C15.6654 14.0833 15.7487 13 16.4154 13.0833C16.4154 13.0833 18.4987 13.25 19.7487 13.25C21.082 13.25 23.082 13.0833 23.082 13.0833C23.7487 13.0833 23.832 14 23.1654 14.0833C23.1654 14.0833 22.4987 14.1667 21.7487 14.1667L26.2487 27.5833L27.4987 23.4167C27.9987 21.6667 28.4154 20.4167 28.4154 19.3333Z" fill="#989898" fill-opacity="0.3"/>
<path d="M20.25 21.082L16.5 31.9987C17.5833 32.332 18.8333 32.4987 20 32.4987C21.4167 32.4987 22.8333 32.2487 24.1667 31.7487C24.1667 31.6654 24.0833 31.6654 24.0833 31.582L20.25 21.082Z" fill="#989898" fill-opacity="0.3"/>
<path d="M20 0C8.91667 0 0 8.91667 0 20C0 31.0833 8.91667 40 20 40C31.0833 40 40 31.0833 40 20C40 8.91667 31.0833 0 20 0ZM20 35.8333C11.25 35.8333 4.16667 28.75 4.16667 20C4.16667 11.25 11.25 4.16667 20 4.16667C28.75 4.16667 35.8333 11.25 35.8333 20C35.8333 28.75 28.75 35.8333 20 35.8333Z" fill="#989898" fill-opacity="0.3"/>
</svg>
